# xmcd
#
# Track frame offsets:
#	150
#	16270
#	29641
#	48595
#	74061
#	90518
#	112263
#	128086
#	147464
#	165978
#	181494
#	198809
#	222427
#	238944
#	256715
#	271564
#	289247
#	305369
#
# Disc length: 4278 seconds
#
# Revision: 1
# Processed by: cddbd v1.5.2PL0 Copyright (c) Steve Scherf et al.
# Submitted via: audiograbber 1.83.01
#
DISCID=0c10b412
DTITLE=Various Artist - MRH103
DYEAR=1900
DGENRE=KARAOKE
TTITLE0=NICOLE SCHERZINGER - BOOMERANG
TTITLE1=ONE DIRECTION - ONE WAY OR ANOTHER
TTITLE2=PINK AND NATE RUESS - JUST GIVE ME A REASON
TTITLE3=JUSTIN TIMBERLAKE - MIRRORS
TTITLE4=BRIDGIT MENDLER - READY OR NOT
TTITLE5=ROBBIE WILLIAMS - BE A BOY
TTITLE6=LITTLE MIX - HOW YA DOIN'
TTITLE7=JUSTIN BIEBER AND LUDACRIS - ALL AROUND THE WORLD
TTITLE8=TAYLOR SWIFT  - 22
TTITLE9=MUMFORD AND SONS - WHISPERS IN THE DARK
TTITLE10=AMELIA LILY - PARTY OVER
TTITLE11=FRANK OCEAN , FEAT, EARL SWEATSH - SUPER RICH KIDS
TTITLE12=SATURDAYS AND SEAN PAUL - WHAT ABOUT US
TTITLE13=LAURA MVULA - GREEN GARDEN
TTITLE14=DRAKE - STARTED FROM THE BOTTOM
TTITLE15=KENDRICK LAMAR - SWIMMING POOLS (DRANK)
TTITLE16=BAUER - HARLEM SHAKE
TTITLE17=WILEY, FEAT, CHIP - RELOAD
EXTD=
EXTT0=
EXTT1=
EXTT2=
EXTT3=
EXTT4=
EXTT5=
EXTT6=
EXTT7=
EXTT8=
EXTT9=
EXTT10=
EXTT11=
EXTT12=
EXTT13=
EXTT14=
EXTT15=
EXTT16=
EXTT17=
PLAYORDER=
